<svg width="216" height="57" viewBox="0 0 216 57" fill="none" xmlns="http://www.w3.org/2000/svg">
<path d="M44.4112 30.9721C45.0759 30.0899 44.8996 28.8359 44.0174 28.1713C43.1352 27.5066 41.8812 27.6829 41.2165 28.5651L44.4112 30.9721ZM30.5087 18.8804L29.4028 17.214C28.6678 17.7018 28.3391 18.6135 28.5939 19.458C28.8486 20.3025 29.6266 20.8804 30.5087 20.8804V18.8804ZM43.9198 12.3807C44.8401 11.7699 45.0911 10.5287 44.4803 9.60839C43.8695 8.68804 42.6283 8.43709 41.708 9.04786L43.9198 12.3807ZM42.8139 20.8804C43.9184 20.8804 44.8139 19.985 44.8139 18.8804C44.8139 17.7759 43.9184 16.8804 42.8139 16.8804V20.8804ZM11.6403 28.6243C11.0083 27.7184 9.76161 27.4964 8.8557 28.1283C7.94979 28.7603 7.72772 30.007 8.3597 30.9129L11.6403 28.6243ZM8.21278 17.9827C7.717 18.9698 8.11525 20.1719 9.10231 20.6677C10.0894 21.1634 11.2914 20.7652 11.7872 19.7781L8.21278 17.9827ZM20.518 19.7781C21.0138 20.7652 22.2158 21.1634 23.2029 20.6677C24.1899 20.1719 24.5882 18.9698 24.0924 17.9827L20.518 19.7781ZM45.6566 43.0817L47.551 43.7229L47.551 43.7229L45.6566 43.0817ZM45.7029 42.9448L43.8085 42.3036L43.8085 42.3036L45.7029 42.9448ZM44.8087 37.6786L46.3862 36.4491L46.3805 36.4418L46.3748 36.4346L44.8087 37.6786ZM36.4512 44.7851L34.8191 45.9411L34.8645 46.0052L34.9148 46.0656L36.4512 44.7851ZM42.5622 46.3344L41.8243 44.4755L42.5622 46.3344ZM31.6146 20.5469L43.9198 12.3807L41.708 9.04786L29.4028 17.214L31.6146 20.5469ZM30.5087 20.8804H42.8139V16.8804H30.5087V20.8804ZM8.3597 30.9129C12.9211 37.4514 19.5149 40.7396 26.2562 40.6958C32.9807 40.6522 39.6459 37.297 44.4112 30.9721L41.2165 28.5651C37.132 33.9864 31.5969 36.6611 26.2302 36.6959C20.8803 36.7306 15.4921 34.1457 11.6403 28.6243L8.3597 30.9129ZM11.7872 19.7781C13.584 16.2009 18.7212 16.2009 20.518 19.7781L24.0924 17.9827C20.8192 11.466 11.486 11.466 8.21278 17.9827L11.7872 19.7781ZM47.551 43.7229L47.5973 43.586L43.8085 42.3036L43.7621 42.4405L47.551 43.7229ZM46.3748 36.4346L42.7942 31.9272L39.6622 34.4152L43.2427 38.9226L46.3748 36.4346ZM30.2438 39.4814L34.8191 45.9411L38.0833 43.6291L33.508 37.1694L30.2438 39.4814ZM34.9148 46.0656C36.954 48.5122 40.34 49.3684 43.3001 48.1933L41.8243 44.4755C40.4664 45.0146 38.9167 44.6194 37.9875 43.5046L34.9148 46.0656ZM47.5973 43.586C48.4205 41.1542 47.9647 38.4743 46.3862 36.4491L43.2313 38.9081C43.984 39.8737 44.1996 41.1481 43.8085 42.3036L47.5973 43.586ZM43.7621 42.4405C43.4489 43.3659 42.7419 44.1113 41.8243 44.4755L43.3001 48.1933C45.3043 47.3978 46.8599 45.7647 47.551 43.7229L43.7621 42.4405Z" fill="#FFAD00"/>
<path d="M61.9795 16.7143V29.8743L60.1195 28.0343H71.3395V31.7143H57.8395V16.7143H61.9795ZM82.8404 31.7143L82.3204 27.5943L82.8604 26.0143L82.3204 24.4343L82.8404 20.2943H87.0804L86.3604 25.9943L87.0804 31.7143H82.8404ZM83.8004 26.0143C83.6137 27.2143 83.2404 28.2676 82.6804 29.1743C82.1337 30.081 81.4337 30.7876 80.5804 31.2943C79.7404 31.7876 78.7804 32.0343 77.7004 32.0343C76.5804 32.0343 75.5937 31.7876 74.7404 31.2943C73.9004 30.7876 73.2404 30.081 72.7604 29.1743C72.2804 28.2543 72.0404 27.201 72.0404 26.0143C72.0404 24.801 72.2804 23.741 72.7604 22.8343C73.2404 21.9276 73.9004 21.221 74.7404 20.7143C75.5937 20.2076 76.5804 19.9543 77.7004 19.9543C78.7804 19.9543 79.7404 20.2076 80.5804 20.7143C81.4337 21.2076 82.1404 21.9076 82.7004 22.8143C83.2604 23.7076 83.6271 24.7743 83.8004 26.0143ZM76.1804 26.0143C76.1804 26.5743 76.2937 27.0743 76.5204 27.5143C76.7604 27.9543 77.0871 28.301 77.5004 28.5543C77.9137 28.7943 78.3871 28.9143 78.9204 28.9143C79.4804 28.9143 80.0071 28.7943 80.5004 28.5543C80.9937 28.301 81.4271 27.9543 81.8004 27.5143C82.1737 27.0743 82.4537 26.5743 82.6404 26.0143C82.4537 25.441 82.1737 24.9343 81.8004 24.4943C81.4271 24.0543 80.9937 23.7076 80.5004 23.4543C80.0071 23.201 79.4804 23.0743 78.9204 23.0743C78.3871 23.0743 77.9137 23.201 77.5004 23.4543C77.0871 23.7076 76.7604 24.0543 76.5204 24.4943C76.2937 24.9343 76.1804 25.441 76.1804 26.0143ZM88.5038 20.2943H92.6638L93.3438 24.3743V31.7143H89.2638V24.1343L88.5038 20.2943ZM98.7038 20.1143V23.5943C98.3038 23.5143 97.9238 23.461 97.5638 23.4343C97.2172 23.3943 96.8972 23.3743 96.6038 23.3743C96.0172 23.3743 95.4772 23.4943 94.9838 23.7343C94.4905 23.961 94.0905 24.341 93.7838 24.8743C93.4905 25.4076 93.3438 26.121 93.3438 27.0143L92.5638 26.0543C92.6705 25.2276 92.8305 24.4543 93.0438 23.7343C93.2572 23.001 93.5438 22.3543 93.9038 21.7943C94.2772 21.221 94.7372 20.7743 95.2838 20.4543C95.8305 20.121 96.4972 19.9543 97.2838 19.9543C97.5105 19.9543 97.7438 19.9676 97.9838 19.9943C98.2238 20.021 98.4638 20.061 98.7038 20.1143ZM100.099 20.1143L102.159 20.5143L104.199 20.1143V31.7143H100.099V20.1143ZM102.139 19.1743C101.432 19.1743 100.859 19.001 100.419 18.6543C99.9785 18.2943 99.7585 17.8076 99.7585 17.1943C99.7585 16.5943 99.9785 16.1143 100.419 15.7543C100.859 15.3943 101.432 15.2143 102.139 15.2143C102.872 15.2143 103.452 15.3943 103.879 15.7543C104.319 16.1143 104.539 16.5943 104.539 17.1943C104.539 17.8076 104.319 18.2943 103.879 18.6543C103.452 19.001 102.872 19.1743 102.139 19.1743ZM120.066 26.8943C119.96 27.921 119.586 28.821 118.946 29.5943C118.306 30.3676 117.473 30.9676 116.446 31.3943C115.433 31.821 114.293 32.0343 113.026 32.0343C111.626 32.0343 110.393 31.781 109.326 31.2743C108.26 30.7676 107.426 30.061 106.826 29.1543C106.226 28.2476 105.926 27.201 105.926 26.0143C105.926 24.8143 106.226 23.761 106.826 22.8543C107.426 21.9476 108.26 21.241 109.326 20.7343C110.393 20.2143 111.626 19.9543 113.026 19.9543C114.293 19.9543 115.433 20.1743 116.446 20.6143C117.473 21.041 118.306 21.641 118.946 22.4143C119.586 23.1743 119.96 24.0743 120.066 25.1143H116.006C115.86 24.4343 115.52 23.9143 114.986 23.5543C114.453 23.181 113.8 22.9943 113.026 22.9943C112.426 22.9943 111.9 23.1143 111.446 23.3543C111.006 23.581 110.66 23.921 110.406 24.3743C110.166 24.8143 110.046 25.361 110.046 26.0143C110.046 26.6543 110.166 27.201 110.406 27.6543C110.66 28.0943 111.006 28.4343 111.446 28.6743C111.9 28.901 112.426 29.0143 113.026 29.0143C113.8 29.0143 114.453 28.821 114.986 28.4343C115.533 28.0476 115.873 27.5343 116.006 26.8943H120.066ZM132.001 31.7143L131.481 27.5943L132.021 26.0143L131.481 24.4343L132.001 20.2943H136.241L135.521 25.9943L136.241 31.7143H132.001ZM132.961 26.0143C132.774 27.2143 132.401 28.2676 131.841 29.1743C131.294 30.081 130.594 30.7876 129.741 31.2943C128.901 31.7876 127.941 32.0343 126.861 32.0343C125.741 32.0343 124.754 31.7876 123.901 31.2943C123.061 30.7876 122.401 30.081 121.921 29.1743C121.441 28.2543 121.201 27.201 121.201 26.0143C121.201 24.801 121.441 23.741 121.921 22.8343C122.401 21.9276 123.061 21.221 123.901 20.7143C124.754 20.2076 125.741 19.9543 126.861 19.9543C127.941 19.9543 128.901 20.2076 129.741 20.7143C130.594 21.2076 131.301 21.9076 131.861 22.8143C132.421 23.7076 132.787 24.7743 132.961 26.0143ZM125.341 26.0143C125.341 26.5743 125.454 27.0743 125.681 27.5143C125.921 27.9543 126.247 28.301 126.661 28.5543C127.074 28.7943 127.547 28.9143 128.081 28.9143C128.641 28.9143 129.167 28.7943 129.661 28.5543C130.154 28.301 130.587 27.9543 130.961 27.5143C131.334 27.0743 131.614 26.5743 131.801 26.0143C131.614 25.441 131.334 24.9343 130.961 24.4943C130.587 24.0543 130.154 23.7076 129.661 23.4543C129.167 23.201 128.641 23.0743 128.081 23.0743C127.547 23.0743 127.074 23.201 126.661 23.4543C126.247 23.7076 125.921 24.0543 125.681 24.4943C125.454 24.9343 125.341 25.441 125.341 26.0143ZM154.357 31.7143L153.917 27.4143L154.497 26.0743L153.937 24.5343L154.777 16.3143H157.457L156.437 25.8943L157.017 31.7143H154.357ZM155.117 26.0543C154.864 27.241 154.444 28.281 153.857 29.1743C153.27 30.0676 152.544 30.761 151.677 31.2543C150.824 31.7476 149.87 31.9943 148.817 31.9943C147.71 31.9943 146.73 31.7476 145.877 31.2543C145.024 30.7476 144.357 30.0476 143.877 29.1543C143.397 28.261 143.157 27.2276 143.157 26.0543C143.157 24.8676 143.397 23.8343 143.877 22.9543C144.357 22.061 145.024 21.3676 145.877 20.8743C146.73 20.3676 147.71 20.1143 148.817 20.1143C149.87 20.1143 150.824 20.361 151.677 20.8543C152.544 21.3476 153.27 22.041 153.857 22.9343C154.457 23.8143 154.877 24.8543 155.117 26.0543ZM145.797 26.0543C145.797 26.8143 145.95 27.4876 146.257 28.0743C146.577 28.6476 147.01 29.101 147.557 29.4343C148.104 29.7543 148.73 29.9143 149.437 29.9143C150.157 29.9143 150.824 29.7543 151.437 29.4343C152.05 29.101 152.59 28.6476 153.057 28.0743C153.537 27.4876 153.917 26.8143 154.197 26.0543C153.917 25.2943 153.537 24.6276 153.057 24.0543C152.59 23.4676 152.05 23.0143 151.437 22.6943C150.824 22.361 150.157 22.1943 149.437 22.1943C148.73 22.1943 148.104 22.361 147.557 22.6943C147.01 23.0143 146.577 23.4676 146.257 24.0543C145.95 24.6276 145.797 25.2943 145.797 26.0543ZM165.779 31.9943C164.405 31.9943 163.199 31.7476 162.159 31.2543C161.132 30.7476 160.325 30.0476 159.739 29.1543C159.165 28.261 158.879 27.2276 158.879 26.0543C158.879 24.8676 159.165 23.8343 159.739 22.9543C160.325 22.061 161.132 21.3676 162.159 20.8743C163.199 20.3676 164.405 20.1143 165.779 20.1143C167.152 20.1143 168.352 20.3676 169.379 20.8743C170.419 21.3676 171.225 22.061 171.799 22.9543C172.385 23.8343 172.679 24.8676 172.679 26.0543C172.679 27.2276 172.385 28.261 171.799 29.1543C171.225 30.0476 170.419 30.7476 169.379 31.2543C168.352 31.7476 167.152 31.9943 165.779 31.9943ZM165.779 29.9543C166.659 29.9543 167.412 29.7943 168.039 29.4743C168.679 29.1543 169.172 28.7076 169.519 28.1343C169.865 27.5476 170.039 26.8543 170.039 26.0543C170.039 25.2543 169.865 24.5676 169.519 23.9943C169.172 23.4076 168.679 22.9543 168.039 22.6343C167.412 22.3143 166.659 22.1543 165.779 22.1543C164.912 22.1543 164.159 22.3143 163.519 22.6343C162.879 22.9543 162.385 23.4076 162.039 23.9943C161.692 24.5676 161.519 25.2543 161.519 26.0543C161.519 26.8543 161.692 27.5476 162.039 28.1343C162.385 28.7076 162.879 29.1543 163.519 29.4743C164.159 29.7943 164.912 29.9543 165.779 29.9543ZM190.685 31.7143L190.245 27.4143L190.825 26.0743L190.265 24.5343L191.105 16.3143H193.785L192.765 25.8943L193.345 31.7143H190.685ZM191.445 26.0543C191.192 27.241 190.772 28.281 190.185 29.1743C189.598 30.0676 188.872 30.761 188.005 31.2543C187.152 31.7476 186.198 31.9943 185.145 31.9943C184.038 31.9943 183.058 31.7476 182.205 31.2543C181.352 30.7476 180.685 30.0476 180.205 29.1543C179.725 28.261 179.485 27.2276 179.485 26.0543C179.485 24.8676 179.725 23.8343 180.205 22.9543C180.685 22.061 181.352 21.3676 182.205 20.8743C183.058 20.3676 184.038 20.1143 185.145 20.1143C186.198 20.1143 187.152 20.361 188.005 20.8543C188.872 21.3476 189.598 22.041 190.185 22.9343C190.785 23.8143 191.205 24.8543 191.445 26.0543ZM182.125 26.0543C182.125 26.8143 182.278 27.4876 182.585 28.0743C182.905 28.6476 183.338 29.101 183.885 29.4343C184.432 29.7543 185.058 29.9143 185.765 29.9143C186.485 29.9143 187.152 29.7543 187.765 29.4343C188.378 29.101 188.918 28.6476 189.385 28.0743C189.865 27.4876 190.245 26.8143 190.525 26.0543C190.245 25.2943 189.865 24.6276 189.385 24.0543C188.918 23.4676 188.378 23.0143 187.765 22.6943C187.152 22.361 186.485 22.1943 185.765 22.1943C185.058 22.1943 184.432 22.361 183.885 22.6943C183.338 23.0143 182.905 23.4676 182.585 24.0543C182.278 24.6276 182.125 25.2943 182.125 26.0543ZM195.847 20.3143L197.147 20.5543L198.447 20.3143V31.7143H195.847V20.3143ZM197.147 18.8943C196.653 18.8943 196.247 18.761 195.927 18.4943C195.607 18.2143 195.447 17.8543 195.447 17.4143C195.447 16.9743 195.607 16.621 195.927 16.3543C196.247 16.0743 196.653 15.9343 197.147 15.9343C197.653 15.9343 198.06 16.0743 198.367 16.3543C198.687 16.621 198.847 16.9743 198.847 17.4143C198.847 17.8543 198.687 18.2143 198.367 18.4943C198.06 18.761 197.653 18.8943 197.147 18.8943ZM211.758 31.7143L211.318 27.5143L211.838 26.0543L211.318 24.6143L211.758 20.3943H214.438L213.838 26.0543L214.438 31.7143H211.758ZM212.558 26.0543C212.305 27.241 211.885 28.281 211.298 29.1743C210.712 30.0676 209.985 30.761 209.118 31.2543C208.265 31.7476 207.312 31.9943 206.258 31.9943C205.152 31.9943 204.172 31.7476 203.318 31.2543C202.465 30.7476 201.798 30.0476 201.318 29.1543C200.838 28.261 200.598 27.2276 200.598 26.0543C200.598 24.8676 200.838 23.8343 201.318 22.9543C201.798 22.061 202.465 21.3676 203.318 20.8743C204.172 20.3676 205.152 20.1143 206.258 20.1143C207.312 20.1143 208.265 20.361 209.118 20.8543C209.985 21.3476 210.712 22.041 211.298 22.9343C211.898 23.8143 212.318 24.8543 212.558 26.0543ZM203.238 26.0543C203.238 26.8143 203.392 27.4876 203.698 28.0743C204.018 28.6476 204.452 29.101 204.998 29.4343C205.545 29.7543 206.172 29.9143 206.878 29.9143C207.598 29.9143 208.265 29.7543 208.878 29.4343C209.492 29.101 210.032 28.6476 210.498 28.0743C210.978 27.4876 211.358 26.8143 211.638 26.0543C211.358 25.2943 210.978 24.6276 210.498 24.0543C210.032 23.4676 209.492 23.0143 208.878 22.6943C208.265 22.361 207.598 22.1943 206.878 22.1943C206.172 22.1943 205.545 22.361 204.998 22.6943C204.452 23.0143 204.018 23.4676 203.698 24.0543C203.392 24.6276 203.238 25.2943 203.238 26.0543Z" fill="#402D05"/>
<path d="M75.7403 43.7143V38.8143H78.6033C78.8926 38.8143 79.1563 38.882 79.3943 39.0173C79.637 39.148 79.8306 39.3276 79.9753 39.5563C80.12 39.785 80.1923 40.0393 80.1923 40.3193C80.1923 40.6133 80.113 40.8816 79.9543 41.1243C79.7956 41.3623 79.5856 41.5536 79.3243 41.6983C79.063 41.8383 78.776 41.9083 78.4633 41.9083H76.4963V43.7143H75.7403ZM79.5343 43.7143L77.8683 41.5023L78.6733 41.3273L80.4793 43.7213L79.5343 43.7143ZM76.4963 41.1803H78.3933C78.5706 41.1803 78.734 41.1406 78.8833 41.0613C79.0373 40.982 79.1586 40.877 79.2473 40.7463C79.3406 40.6156 79.3873 40.4733 79.3873 40.3193C79.3873 40.1746 79.3406 40.044 79.2473 39.9273C79.1586 39.8106 79.0373 39.7173 78.8833 39.6473C78.734 39.5773 78.5706 39.5423 78.3933 39.5423H76.4963V41.1803ZM82.8155 43.7143V38.8143H86.8825V39.5423H83.5715V42.9863H86.8825V43.7143H82.8155ZM83.2285 41.5653V40.8373H86.4975V41.5653H83.2285ZM91.7255 43.7843C91.3335 43.7843 90.9648 43.726 90.6195 43.6093C90.2788 43.488 89.9778 43.3176 89.7165 43.0983C89.4598 42.8743 89.2591 42.6083 89.1145 42.3003C88.9698 41.9876 88.8975 41.6423 88.8975 41.2643C88.8975 40.905 88.9721 40.5736 89.1215 40.2703C89.2755 39.967 89.4831 39.7033 89.7445 39.4793C90.0058 39.2553 90.3068 39.0826 90.6475 38.9613C90.9881 38.8353 91.3475 38.7723 91.7255 38.7723C92.0428 38.7723 92.3461 38.8143 92.6355 38.8983C92.9248 38.9776 93.1861 39.0803 93.4195 39.2063C93.6575 39.3276 93.8465 39.456 93.9865 39.5913L93.5385 40.2283C93.3705 40.0883 93.1908 39.9646 92.9995 39.8573C92.8081 39.75 92.6005 39.666 92.3765 39.6053C92.1571 39.5446 91.9168 39.5143 91.6555 39.5143C91.4081 39.5143 91.1655 39.5563 90.9275 39.6403C90.6941 39.7196 90.4818 39.8363 90.2905 39.9903C90.0991 40.1396 89.9475 40.324 89.8355 40.5433C89.7235 40.758 89.6675 40.9983 89.6675 41.2643C89.6675 41.5583 89.7258 41.8173 89.8425 42.0413C89.9591 42.2606 90.1178 42.445 90.3185 42.5943C90.5191 42.7436 90.7455 42.858 90.9975 42.9373C91.2495 43.012 91.5108 43.0493 91.7815 43.0493C92.0615 43.0493 92.3111 43.0143 92.5305 42.9443C92.7498 42.8696 92.9458 42.7786 93.1185 42.6713C93.2911 42.564 93.4475 42.459 93.5875 42.3563L93.9515 42.9863C93.8208 43.0936 93.6411 43.2103 93.4125 43.3363C93.1885 43.4623 92.9318 43.5696 92.6425 43.6583C92.3578 43.7423 92.0521 43.7843 91.7255 43.7843ZM96.1456 43.7143V38.8143H100.213V39.5423H96.9016V42.9863H100.213V43.7143H96.1456ZM96.5586 41.5653V40.8373H99.8276V41.5653H96.5586ZM102.662 43.7143V42.9653H103.943V39.5633H102.662V38.8143H105.98V39.5633H104.699V42.9653H105.98V43.7143H102.662ZM109.868 43.7143V39.5423H108.006V38.8143H112.528V39.5423H110.624V43.7143H109.868ZM113.521 43.7143L115.915 38.8143H116.797L119.177 43.7143H118.344L116.699 40.3403C116.657 40.2516 116.615 40.1653 116.573 40.0813C116.531 39.9973 116.489 39.9133 116.447 39.8293C116.41 39.7453 116.373 39.6566 116.335 39.5633C116.298 39.47 116.261 39.3673 116.223 39.2553L116.447 39.2483C116.405 39.3603 116.363 39.4653 116.321 39.5633C116.284 39.6613 116.244 39.7546 116.202 39.8433C116.16 39.932 116.118 40.0206 116.076 40.1093C116.034 40.1933 115.992 40.2796 115.95 40.3683L114.319 43.7143H113.521ZM114.564 42.5663L114.865 41.8383H117.77L117.889 42.5663H114.564ZM123.169 43.7843C122.819 43.7843 122.494 43.7493 122.196 43.6793C121.902 43.6093 121.631 43.5043 121.384 43.3643C121.141 43.2243 120.919 43.047 120.719 42.8323L121.195 42.2023C121.498 42.515 121.806 42.7436 122.119 42.8883C122.436 43.033 122.788 43.1053 123.176 43.1053C123.418 43.1053 123.652 43.0773 123.876 43.0213C124.1 42.9606 124.284 42.872 124.429 42.7553C124.573 42.634 124.646 42.4823 124.646 42.3003C124.646 42.1836 124.606 42.088 124.527 42.0133C124.447 41.9386 124.342 41.878 124.212 41.8313C124.086 41.7846 123.948 41.7473 123.799 41.7193C123.649 41.6913 123.505 41.6703 123.365 41.6563C123.229 41.6423 123.115 41.6306 123.022 41.6213C122.709 41.5793 122.424 41.5233 122.168 41.4533C121.916 41.3786 121.699 41.2853 121.517 41.1733C121.339 41.0613 121.202 40.9236 121.104 40.7603C121.01 40.597 120.964 40.408 120.964 40.1933C120.964 39.9646 121.017 39.7616 121.125 39.5843C121.237 39.4023 121.391 39.2506 121.587 39.1293C121.787 39.0033 122.018 38.9076 122.28 38.8423C122.546 38.777 122.833 38.7443 123.141 38.7443C123.467 38.7443 123.766 38.777 124.037 38.8423C124.307 38.9076 124.548 39.0056 124.758 39.1363C124.972 39.2623 125.15 39.4186 125.29 39.6053L124.786 40.1583C124.655 39.9996 124.503 39.8666 124.331 39.7593C124.158 39.6473 123.969 39.5633 123.764 39.5073C123.563 39.4513 123.348 39.4233 123.12 39.4233C122.868 39.4233 122.641 39.4513 122.441 39.5073C122.24 39.5633 122.081 39.6426 121.965 39.7453C121.848 39.8433 121.79 39.9646 121.79 40.1093C121.79 40.2353 121.825 40.3426 121.895 40.4313C121.969 40.52 122.072 40.5946 122.203 40.6553C122.333 40.7113 122.49 40.758 122.672 40.7953C122.858 40.8326 123.064 40.8653 123.288 40.8933C123.568 40.926 123.838 40.968 124.1 41.0193C124.361 41.0706 124.594 41.143 124.8 41.2363C125.005 41.325 125.168 41.4463 125.29 41.6003C125.411 41.7543 125.472 41.955 125.472 42.2023C125.472 42.5196 125.376 42.7973 125.185 43.0353C124.993 43.2733 124.725 43.4576 124.38 43.5883C124.039 43.719 123.635 43.7843 123.169 43.7843ZM133.486 43.7843C133.094 43.7843 132.726 43.726 132.38 43.6093C132.04 43.488 131.739 43.3176 131.477 43.0983C131.221 42.8743 131.02 42.6083 130.875 42.3003C130.731 41.9876 130.658 41.6423 130.658 41.2643C130.658 40.905 130.733 40.5736 130.882 40.2703C131.036 39.967 131.244 39.7033 131.505 39.4793C131.767 39.2553 132.068 39.0826 132.408 38.9613C132.749 38.8353 133.108 38.7723 133.486 38.7723C133.804 38.7723 134.107 38.8143 134.396 38.8983C134.686 38.9776 134.947 39.0803 135.18 39.2063C135.418 39.3276 135.607 39.456 135.747 39.5913L135.299 40.2283C135.131 40.0883 134.952 39.9646 134.76 39.8573C134.569 39.75 134.361 39.666 134.137 39.6053C133.918 39.5446 133.678 39.5143 133.416 39.5143C133.169 39.5143 132.926 39.5563 132.688 39.6403C132.455 39.7196 132.243 39.8363 132.051 39.9903C131.86 40.1396 131.708 40.324 131.596 40.5433C131.484 40.758 131.428 40.9983 131.428 41.2643C131.428 41.5583 131.487 41.8173 131.603 42.0413C131.72 42.2606 131.879 42.445 132.079 42.5943C132.28 42.7436 132.506 42.858 132.758 42.9373C133.01 43.012 133.272 43.0493 133.542 43.0493C133.822 43.0493 134.072 43.0143 134.291 42.9443C134.511 42.8696 134.707 42.7786 134.879 42.6713C135.052 42.564 135.208 42.459 135.348 42.3563L135.712 42.9863C135.582 43.0936 135.402 43.2103 135.173 43.3363C134.949 43.4623 134.693 43.5696 134.403 43.6583C134.119 43.7423 133.813 43.7843 133.486 43.7843ZM140.286 43.7563C139.792 43.7563 139.36 43.6536 138.991 43.4483C138.623 43.2383 138.336 42.9536 138.13 42.5943C137.925 42.235 137.822 41.8266 137.822 41.3693V38.8073H138.578V41.3413C138.578 41.6633 138.653 41.9526 138.802 42.2093C138.956 42.4613 139.162 42.6596 139.418 42.8043C139.68 42.949 139.969 43.0213 140.286 43.0213C140.622 43.0213 140.921 42.949 141.182 42.8043C141.444 42.6596 141.649 42.4613 141.798 42.2093C141.952 41.9526 142.029 41.6633 142.029 41.3413V38.8073H142.75V41.3693C142.75 41.8266 142.648 42.235 142.442 42.5943C142.237 42.9536 141.95 43.2383 141.581 43.4483C141.213 43.6536 140.781 43.7563 140.286 43.7563ZM145.214 43.7143V38.8143H145.97V42.9863H149.246V43.7143H145.214ZM151.559 43.7143V42.9653H152.84V39.5633H151.559V38.8143H154.877V39.5633H153.596V42.9653H154.877V43.7143H151.559ZM157.478 43.7143V38.8143H158.227L162.203 42.8253L162.161 42.8883C162.137 42.7483 162.116 42.599 162.098 42.4403C162.084 42.277 162.072 42.1113 162.063 41.9433C162.053 41.7706 162.044 41.598 162.035 41.4253C162.03 41.248 162.025 41.0753 162.021 40.9073C162.021 40.7393 162.021 40.5783 162.021 40.4243V38.8143H162.777V43.7143H162.014L158.087 39.8503L158.094 39.7523C158.103 39.8363 158.112 39.9366 158.122 40.0533C158.131 40.17 158.143 40.296 158.157 40.4313C158.171 40.5666 158.182 40.7066 158.192 40.8513C158.206 40.9913 158.215 41.1336 158.22 41.2783C158.229 41.4183 158.234 41.5513 158.234 41.6773V43.7143H157.478ZM164.695 43.7143L167.089 38.8143H167.971L170.351 43.7143H169.518L167.873 40.3403C167.831 40.2516 167.789 40.1653 167.747 40.0813C167.705 39.9973 167.663 39.9133 167.621 39.8293C167.584 39.7453 167.547 39.6566 167.509 39.5633C167.472 39.47 167.435 39.3673 167.397 39.2553L167.621 39.2483C167.579 39.3603 167.537 39.4653 167.495 39.5633C167.458 39.6613 167.418 39.7546 167.376 39.8433C167.334 39.932 167.292 40.0206 167.25 40.1093C167.208 40.1933 167.166 40.2796 167.124 40.3683L165.493 43.7143H164.695ZM165.738 42.5663L166.039 41.8383H168.944L169.063 42.5663H165.738ZM166.977 38.4293L166.781 38.0653L168.062 37.2743L168.391 37.9043L166.977 38.4293ZM172.271 43.7143V38.8143H175.134C175.423 38.8143 175.687 38.882 175.925 39.0173C176.167 39.148 176.361 39.3276 176.506 39.5563C176.65 39.785 176.723 40.0393 176.723 40.3193C176.723 40.6133 176.643 40.8816 176.485 41.1243C176.326 41.3623 176.116 41.5536 175.855 41.6983C175.593 41.8383 175.306 41.9083 174.994 41.9083H173.027V43.7143H172.271ZM176.065 43.7143L174.399 41.5023L175.204 41.3273L177.01 43.7213L176.065 43.7143ZM173.027 41.1803H174.924C175.101 41.1803 175.264 41.1406 175.414 41.0613C175.568 40.982 175.689 40.877 175.778 40.7463C175.871 40.6156 175.918 40.4733 175.918 40.3193C175.918 40.1746 175.871 40.044 175.778 39.9273C175.689 39.8106 175.568 39.7173 175.414 39.6473C175.264 39.5773 175.101 39.5423 174.924 39.5423H173.027V41.1803ZM179.402 43.7143V42.9653H180.683V39.5633H179.402V38.8143H182.72V39.5633H181.439V42.9653H182.72V43.7143H179.402ZM184.69 43.7143L187.084 38.8143H187.966L190.346 43.7143H189.513L187.868 40.3403C187.826 40.2516 187.784 40.1653 187.742 40.0813C187.7 39.9973 187.658 39.9133 187.616 39.8293C187.579 39.7453 187.542 39.6566 187.504 39.5633C187.467 39.47 187.43 39.3673 187.392 39.2553L187.616 39.2483C187.574 39.3603 187.532 39.4653 187.49 39.5633C187.453 39.6613 187.413 39.7546 187.371 39.8433C187.329 39.932 187.287 40.0206 187.245 40.1093C187.203 40.1933 187.161 40.2796 187.119 40.3683L185.488 43.7143H184.69ZM185.733 42.5663L186.034 41.8383H188.939L189.058 42.5663H185.733ZM194.338 43.7843C193.988 43.7843 193.663 43.7493 193.365 43.6793C193.071 43.6093 192.8 43.5043 192.553 43.3643C192.31 43.2243 192.088 43.047 191.888 42.8323L192.364 42.2023C192.667 42.515 192.975 42.7436 193.288 42.8883C193.605 43.033 193.957 43.1053 194.345 43.1053C194.587 43.1053 194.821 43.0773 195.045 43.0213C195.269 42.9606 195.453 42.872 195.598 42.7553C195.742 42.634 195.815 42.4823 195.815 42.3003C195.815 42.1836 195.775 42.088 195.696 42.0133C195.616 41.9386 195.511 41.878 195.381 41.8313C195.255 41.7846 195.117 41.7473 194.968 41.7193C194.818 41.6913 194.674 41.6703 194.534 41.6563C194.398 41.6423 194.284 41.6306 194.191 41.6213C193.878 41.5793 193.593 41.5233 193.337 41.4533C193.085 41.3786 192.868 41.2853 192.686 41.1733C192.508 41.0613 192.371 40.9236 192.273 40.7603C192.179 40.597 192.133 40.408 192.133 40.1933C192.133 39.9646 192.186 39.7616 192.294 39.5843C192.406 39.4023 192.56 39.2506 192.756 39.1293C192.956 39.0033 193.187 38.9076 193.449 38.8423C193.715 38.777 194.002 38.7443 194.31 38.7443C194.636 38.7443 194.935 38.777 195.206 38.8423C195.476 38.9076 195.717 39.0056 195.927 39.1363C196.141 39.2623 196.319 39.4186 196.459 39.6053L195.955 40.1583C195.824 39.9996 195.672 39.8666 195.5 39.7593C195.327 39.6473 195.138 39.5633 194.933 39.5073C194.732 39.4513 194.517 39.4233 194.289 39.4233C194.037 39.4233 193.81 39.4513 193.61 39.5073C193.409 39.5633 193.25 39.6426 193.134 39.7453C193.017 39.8433 192.959 39.9646 192.959 40.1093C192.959 40.2353 192.994 40.3426 193.064 40.4313C193.138 40.52 193.241 40.5946 193.372 40.6553C193.502 40.7113 193.659 40.758 193.841 40.7953C194.027 40.8326 194.233 40.8653 194.457 40.8933C194.737 40.926 195.007 40.968 195.269 41.0193C195.53 41.0706 195.763 41.143 195.969 41.2363C196.174 41.325 196.337 41.4463 196.459 41.6003C196.58 41.7543 196.641 41.955 196.641 42.2023C196.641 42.5196 196.545 42.7973 196.354 43.0353C196.162 43.2733 195.894 43.4576 195.549 43.5883C195.208 43.719 194.804 43.7843 194.338 43.7843Z" fill="#402D05"/>
</svg>
